<?xml version="1.0" encoding="utf-8"?>
<!-- Generator: Adobe Illustrator 15.1.0, SVG Export Plug-In . SVG Version: 6.00 Build 0)  -->
<!DOCTYPE svg PUBLIC "-//W3C//DTD SVG 1.1//EN" "http://www.w3.org/Graphics/SVG/1.1/DTD/svg11.dtd">
<svg version="1.1" id="Layer_1" xmlns="http://www.w3.org/2000/svg" xmlns:xlink="http://www.w3.org/1999/xlink" x="0px" y="0px"
	 width="211.199px" height="43.783px" viewBox="0 0 211.199 43.783" enable-background="new 0 0 211.199 43.783"
	 xml:space="preserve">
<path fill="#FFFFFF" d="M23.771,30.458c0-6.354-5.192-9.428-5.192-9.428s5.192-1.937,5.192-8.355v-1.518l-0.04,0.109V8.85
	c0-0.355-0.012-0.689-0.03-1.016c-0.38-6.757-4.755-7.818-6.356-7.818c-0.335,0-0.604,0-0.604,0h-0.178H4.409
	C1.975,0.016,0,1.991,0,4.428v34.924c0,2.437,1.975,4.41,4.409,4.41h21.278c-1.129-1.633-1.917-4.018-1.917-7.498V30.458z"/>
<path fill="#FFFFFF" d="M39.327,0h-3.612c-1.674,0.135-4.804,1.113-5.115,6.608c-0.018,0.293-0.029,0.594-0.029,0.913v6.637
	c0,6.156-4.889,7.664-4.889,7.664v0.018v0.104v0.016c0,0,4.889,1.51,4.889,7.663v6.639c0,0.32,0.012,0.621,0.029,0.914
	c0.312,5.495,3.441,6.474,5.115,6.608h3.612c2.435,0,4.407-1.948,4.407-4.353V22.039v-0.292V4.355C43.734,1.948,41.762,0,39.327,0z"
	/>
<g>
	<path fill="#FFFFFF" d="M64.822,31.093c0,1.496-1.24,2.736-2.756,2.736h-0.768l3.523,4.193v0.668h-2.834l-4.094-4.861h-4.586
		h-0.059v4.861h-2.598V24.538h11.417c1.516,0,2.756,1.24,2.756,2.736V31.093z M62.066,31.231c0.079,0,0.138-0.061,0.138-0.139
		v-3.818c0-0.078-0.059-0.139-0.138-0.139h-8.68c-0.079,0-0.138,0.061-0.138,0.139v3.818c0,0.078,0.059,0.139,0.138,0.139H62.066z"
		/>
	<path fill="#FFFFFF" d="M79.978,27.116H69.565v3.189h8.385v2.598h-8.385v3.189h10.413v2.598H66.947V24.519h13.031V27.116z"/>
	<path fill="#FFFFFF" d="M93.44,24.519c1.516,0,2.756,1.221,2.756,2.736V38.69h-2.618v-4.764h-8.957v4.764h-2.598V27.255
		c0-1.516,1.22-2.736,2.736-2.736H93.44z M93.578,31.329v-4.074c0-0.078-0.059-0.139-0.138-0.139h-8.68
		c-0.079,0-0.138,0.061-0.138,0.139v4.074H93.578z"/>
	<path fill="#FFFFFF" d="M98.458,24.499h2.598v11.594h11.574v2.598H98.458V24.499z"/>
	<path fill="#FFFFFF" d="M113.988,24.519h2.598V38.69h-2.598V24.519z"/>
	<path fill="#FFFFFF" d="M131.762,24.519v2.598h-5.768V38.69h-2.617V27.116h-5.787v-2.598H131.762z"/>
	<path fill="#FFFFFF" d="M148.176,24.519l-6.555,8.877v5.295h-2.598v-5.295c-2.066-2.814-4.508-6.062-6.555-8.877h3.09l4.764,6.023
		l4.744-6.023H148.176z"/>
	<path fill="#FFFFFF" d="M149.121,24.499h2.598v11.594h11.574v2.598h-14.172V24.499z"/>
	<path fill="#FFFFFF" d="M175.83,24.519c1.496,0,2.736,1.221,2.736,2.736v8.699c0,1.516-1.24,2.736-2.736,2.736h-8.699
		c-1.516,0-2.736-1.221-2.736-2.736v-8.699c0-1.516,1.221-2.736,2.736-2.736H175.83z M175.83,36.093
		c0.061,0,0.119-0.059,0.119-0.139v-8.699c0-0.078-0.059-0.139-0.119-0.139h-8.699c-0.078,0-0.139,0.061-0.139,0.139v8.699
		c0,0.08,0.061,0.139,0.139,0.139H175.83z"/>
	<path fill="#FFFFFF" d="M192.127,24.519c1.496,0,2.736,1.221,2.736,2.736v8.699c0,1.516-1.24,2.736-2.736,2.736h-8.699
		c-1.516,0-2.736-1.221-2.736-2.736v-8.699c0-1.516,1.221-2.736,2.736-2.736H192.127z M192.127,36.093
		c0.061,0,0.119-0.059,0.119-0.139v-8.699c0-0.078-0.059-0.139-0.119-0.139h-8.699c-0.078,0-0.139,0.061-0.139,0.139v8.699
		c0,0.08,0.061,0.139,0.139,0.139H192.127z"/>
	<path fill="#FFFFFF" d="M208.443,24.538c1.516,0,2.756,1.24,2.756,2.736v3.818c0,1.496-1.24,2.736-2.756,2.736l-8.758,0.02
		l-0.061-0.02v4.861h-2.598V24.538H208.443z M208.582,27.274c0-0.078-0.059-0.139-0.139-0.139h-8.68
		c-0.078,0-0.139,0.061-0.139,0.139v3.818c0,0.078,0.061,0.139,0.139,0.139h8.68c0.08,0,0.139-0.061,0.139-0.139V27.274z"/>
</g>
</svg>
