<?xml version="1.0" encoding="UTF-8" standalone="no"?>
<!-- Created with Inkscape (http://www.inkscape.org/) -->

<svg
   xmlns:dc="http://purl.org/dc/elements/1.1/"
   xmlns:cc="http://creativecommons.org/ns#"
   xmlns:rdf="http://www.w3.org/1999/02/22-rdf-syntax-ns#"
   xmlns:svg="http://www.w3.org/2000/svg"
   xmlns="http://www.w3.org/2000/svg"
   version="1.1"
   width="108"
   height="110"
   id="svg3719"
   xml:space="preserve"><metadata
     id="metadata3725"><rdf:RDF><cc:Work
         rdf:about=""><dc:format>image/svg+xml</dc:format><dc:type
           rdf:resource="http://purl.org/dc/dcmitype/StillImage" /><dc:title></dc:title></cc:Work></rdf:RDF></metadata><defs
     id="defs3723"><linearGradient
       x1="0"
       y1="0"
       x2="1"
       y2="0"
       id="linearGradient3747"
       gradientUnits="userSpaceOnUse"
       gradientTransform="matrix(-104.01306,-104.01306,104.01306,-104.01306,116.00586,-11.99316)"
       spreadMethod="pad"><stop
         id="stop3749"
         style="stop-color:#0e6034;stop-opacity:1"
         offset="0" /><stop
         id="stop3751"
         style="stop-color:#399e36;stop-opacity:1"
         offset="0.5" /><stop
         id="stop3753"
         style="stop-color:#0e6034;stop-opacity:1"
         offset="1" /></linearGradient></defs><g
     transform="matrix(1.25,0,0,-1.25,0,110)"
     id="g3727"><g
       transform="matrix(1,0,0,-1,-20.96582,-19.96582)"
       id="g3729"
       style="fill:#ffffff"><g
         id="g3735"
         style="fill:#ffffff"><g
           id="g3737"
           style="fill:#ffffff"><g
             id="g3743"
             style="fill:#ffffff"><g
               id="g3745"
               style="fill:#ffffff" /></g></g></g><path
         d="m 51.86621,-64.24902 c 0,8.5332 -6.91601,15.45019 -15.44922,15.45019 -8.5332,0 -15.45117,-6.91699 -15.45117,-15.45019 0,-8.53321 6.91797,-15.4502 15.45117,-15.4502 8.53321,0 15.44922,6.91699 15.44922,15.4502 z"
         id="path3757"
         style="fill:#ffffff;fill-opacity:1;fill-rule:nonzero;stroke:none" /><path
         d="m 94.28516,-40.16797 c 0,0 -5.32422,10.44043 -5.32422,10.44043 0,0 -55.28809,-28.18848 -55.28809,-28.18848 0,0 5.32422,-10.4414 5.32422,-10.4414 0,0 55.28809,28.18945 55.28809,28.18945 z"
         id="path3759"
         style="fill:#ffffff;fill-opacity:1;fill-rule:nonzero;stroke:none" /><path
         d="m 33.67285,-69.50195 c 0,0 5.32422,10.4414 5.32422,10.4414 0,0 55.28809,-28.18896 55.28809,-28.18896 0,0 -5.32422,-10.44141 -5.32422,-10.44141 0,0 -55.28809,28.18897 -55.28809,28.18897 z"
         id="path3761"
         style="fill:#ffffff;fill-opacity:1;fill-rule:nonzero;stroke:none" /><path
         d="m 107.03418,-35.41602 c 0,8.53321 -6.91699,15.4502 -15.44922,15.4502 -8.53418,0 -15.45117,-6.91699 -15.45117,-15.4502 0,-8.5332 6.91699,-15.45019 15.45117,-15.45019 8.53223,0 15.44922,6.91699 15.44922,15.45019 z"
         id="path3763"
         style="fill:#ffffff;fill-opacity:1;fill-rule:nonzero;stroke:none" /><path
         d="m 107.03418,-92.58252 c 0,8.53369 -6.91699,15.44971 -15.44922,15.44971 -8.53418,0 -15.45117,-6.91602 -15.45117,-15.44971 0,-8.5332 6.91699,-15.45019 15.45117,-15.45019 8.53223,0 15.44922,6.91699 15.44922,15.45019 z"
         id="path3765"
         style="fill:#ffffff;fill-opacity:1;fill-rule:nonzero;stroke:none" /></g></g></svg>